<?xml version="1.0" encoding="UTF-8"?>
<svg width="202px" height="41px" viewBox="0 0 202 41" version="1.1" xmlns="http://www.w3.org/2000/svg" xmlns:xlink="http://www.w3.org/1999/xlink">
    <!-- Generator: Sketch 52.6 (67491) - http://www.bohemiancoding.com/sketch -->
    <title>CDM_2018_logo_payoff_orange_blue_RGB</title>
    <desc>Created with Sketch.</desc>
    <defs>
        <polygon id="path-1" points="0 47 209 47 209 0 0 0"></polygon>
    </defs>
    <g id="Homepage-Desktop" stroke="none" stroke-width="1" fill="none" fill-rule="evenodd">
        <g id="Desktop---with-feedback" transform="translate(-106.000000, -13.000000)">
            <g id="CDM_2018_logo_payoff_orange_blue_RGB" transform="translate(102.000000, 9.000000)">
                <polygon id="Fill-1" fill="#FF5C00" points="37.3292174 35.0198047 38.6547036 35.0198047 39.4895916 37.3366806 40.3244796 35.0198047 41.6603004 35.0198047 40.39756 38.2043236 41.3368274 40.4422594 43.4344558 35 45 35 41.9837733 42 40.7732965 42 39.4895916 39.0619247 38.2058867 42 36.9952622 42 34 35 35.5445797 35 37.6526904 40.4422594 38.571141 38.2043236"></polygon>
                <g id="Group-54">
                    <path d="M48.3422118,39.1641686 C48.3086581,38.7658149 48.1629268,38.4467021 47.905018,38.2069735 C47.6469669,37.9672448 47.3337513,37.8474521 46.965371,37.8474521 C46.7843799,37.8474521 46.6151894,37.8795497 46.4577996,37.9436015 C46.3002676,38.0077966 46.1613608,38.0972113 46.0407948,38.2119887 C45.9200867,38.3269095 45.8211316,38.4653302 45.7442139,38.6272509 C45.667154,38.7893149 45.6219418,38.9684308 45.6085771,39.1641686 L48.3422118,39.1641686 Z M46.9753234,42.3650405 C46.5532003,42.3650405 46.1713132,42.2923912 45.8296622,42.1472357 C45.487869,42.0020802 45.1965486,41.8046229 44.9552744,41.5547204 C44.7140003,41.304818 44.5281751,41.014507 44.3973724,40.6836442 C44.2667118,40.3527814 44.2014527,40.0048668 44.2014527,39.6401869 C44.2014527,39.2621808 44.2651479,38.9058119 44.3923962,38.5716534 C44.5196445,38.2373515 44.7040479,37.9436015 44.9451799,37.6902601 C45.186454,37.4370619 45.4794805,37.2363088 45.8245438,37.0877143 C46.1696071,36.9392631 46.5566125,36.8648942 46.985418,36.8648942 C47.4142234,36.8648942 47.7978166,36.9392631 48.1361976,37.0877143 C48.4744363,37.2363088 48.7626288,37.435629 49.0004907,37.6852448 C49.2382105,37.9351473 49.4192016,38.2256015 49.5431799,38.5564643 C49.6671581,38.8873271 49.7291472,39.2318027 49.7291472,39.5896046 C49.7291472,39.677443 49.7274411,39.7616991 49.724171,39.8428027 C49.7207588,39.9239064 49.7123703,39.9913973 49.6990057,40.0454186 L45.6286241,40.0454186 C45.648671,40.2547692 45.6990016,40.4404765 45.7794737,40.6025405 C45.8598037,40.7646046 45.9635928,40.9030253 46.0909833,41.0178027 C46.2182316,41.1327235 46.3622567,41.2204186 46.523201,41.2811747 C46.6838608,41.3419308 46.8513452,41.3723088 47.025654,41.3723088 C47.2935152,41.3723088 47.5464479,41.3065375 47.784452,41.1748515 C48.0221717,41.0431655 48.184822,40.8693515 48.2718343,40.6531229 L49.4277322,40.9772509 C49.2332343,41.3824826 48.9234309,41.7152082 48.4980377,41.9749979 C48.0725023,42.2350741 47.5649309,42.3650405 46.9753234,42.3650405 Z" id="Fill-2" fill="#FF5C00"></path>
                    <path d="M52.6336216,39.6098662 C52.6336216,39.2385948 52.6971747,38.8873845 52.8245652,38.5563784 C52.9518135,38.2256588 53.1362169,37.9352046 53.3773488,37.6853021 C53.618623,37.435543 53.9100856,37.2363662 54.2517366,37.0876284 C54.5935298,36.9391771 54.9786869,36.8648082 55.4074924,36.8648082 C55.9837352,36.8648082 56.4743876,36.9899027 56.8798761,37.2395186 C57.2852223,37.4895643 57.5884856,37.8169881 57.7895237,38.2220765 L56.4728237,38.6273082 C56.35894,38.4315704 56.2080903,38.2813997 56.020559,38.1766527 C55.8328856,38.0719058 55.6251652,38.019604 55.3973978,38.019604 C55.203042,38.019604 55.0221931,38.0584363 54.8548509,38.1359576 C54.6872244,38.2137655 54.5414931,38.3218082 54.4175148,38.460229 C54.2935366,38.5986497 54.1964298,38.765729 54.1261944,38.9616101 C54.0556747,39.1574912 54.020557,39.3735765 54.020557,39.6098662 C54.020557,39.8462991 54.0573808,40.0623845 54.1311706,40.2581223 C54.2048182,40.4541466 54.3036312,40.6228021 54.4276094,40.7646619 C54.5515876,40.9063784 54.6973189,41.0161405 54.8648033,41.0938052 C55.0322876,41.1714698 55.2098665,41.2103021 55.3973978,41.2103021 C55.638672,41.2103021 55.861321,41.149546 56.0659135,41.0278905 C56.2702216,40.9063784 56.4125407,40.7579271 56.4930128,40.5822503 L57.8095706,40.987482 C57.6287216,41.3925704 57.3304346,41.7234332 56.9151359,41.9800704 C56.4995529,42.2368509 56.0005121,42.3650979 55.4175869,42.3650979 C54.9886393,42.3650979 54.6034822,42.2905857 54.2618312,42.1421345 C53.920038,41.9936832 53.6285754,41.7926436 53.3874434,41.5394454 C53.1461693,41.2862473 52.9602019,40.9924973 52.8295414,40.6581954 C52.6988808,40.3238936 52.6336216,39.974546 52.6336216,39.6098662" id="Fill-4" fill="#FF5C00"></path>
                    <path d="M59.6388182,39.6200113 C59.6388182,39.8564442 59.6739359,40.0708101 59.7443135,40.2631088 C59.814691,40.4556942 59.9116556,40.6227735 60.0357761,40.7646332 C60.1597543,40.9063497 60.3053434,41.0162552 60.4729699,41.0937765 C60.6403121,41.1714412 60.8213033,41.2102735 61.015659,41.2102735 C61.2098727,41.2102735 61.3908638,41.1714412 61.5583482,41.0937765 C61.7258325,41.0162552 61.8715638,40.9063497 61.995542,40.7646332 C62.1195203,40.6227735 62.2166271,40.454118 62.2870046,40.2580936 C62.3573822,40.0623558 62.392642,39.8462704 62.392642,39.6098375 C62.392642,39.3804259 62.3573822,39.1676363 62.2870046,38.9717552 C62.2166271,38.7758741 62.1195203,38.6070753 61.995542,38.4652155 C61.8715638,38.3234991 61.7258325,38.2137369 61.5583482,38.1360723 C61.3908638,38.0585509 61.2098727,38.0195753 61.015659,38.0195753 C60.8213033,38.0195753 60.6403121,38.0601271 60.4729699,38.1410875 C60.3053434,38.2221912 60.1597543,38.3335296 60.0357761,38.4753893 C59.9116556,38.6171058 59.814691,38.7860479 59.7443135,38.9817857 C59.6739359,39.1778101 59.6388182,39.3904564 59.6388182,39.6200113 M61.015659,42.3650692 C60.5867114,42.3650692 60.2015543,42.290557 59.8599033,42.1422491 C59.5181101,41.9936546 59.2282114,41.7927582 58.9904917,41.5395601 C58.7526298,41.2862186 58.5699325,40.9941881 58.4428264,40.6633253 C58.3154359,40.3324625 58.2518829,39.9845479 58.2518829,39.6200113 C58.2518829,39.2487399 58.3154359,38.8975296 58.4428264,38.5665235 C58.5699325,38.235804 58.7526298,37.9436302 58.9904917,37.6902887 C59.2282114,37.4370905 59.5181101,37.2363375 59.8599033,37.087743 C60.2015543,36.9392918 60.5867114,36.8647796 61.015659,36.8647796 C61.4444645,36.8647796 61.8280577,36.9392918 62.1664386,37.087743 C62.5046774,37.2363375 62.7928699,37.4370905 63.0307318,37.6902887 C63.2684516,37.9436302 63.4511488,38.235804 63.5785393,38.5665235 C63.7056454,38.8975296 63.7694829,39.2487399 63.7694829,39.6200113 C63.7694829,39.9845479 63.7056454,40.3324625 63.5785393,40.6633253 C63.4511488,40.9941881 63.2702999,41.2862186 63.0358502,41.5395601 C62.8012584,41.7927582 62.513208,41.9936546 62.1714148,42.1422491 C61.8297638,42.290557 61.4444645,42.3650692 61.015659,42.3650692" id="Fill-6" fill="#FF5C00"></path>
                    <path d="M67.2065518,41.2102878 C67.3338001,41.2102878 67.4644607,41.188364 67.5985335,41.1445165 C67.7324641,41.1005256 67.8564423,41.03805 67.9704682,40.9569463 C68.0842097,40.875986 68.186577,40.7815561 68.2768593,40.6733701 C68.367426,40.5654707 68.4359552,40.4472543 68.4830158,40.318864 L68.4830158,39.0527299 C68.4292729,38.9042787 68.3539192,38.7675774 68.2568124,38.6424829 C68.1597056,38.5175317 68.049092,38.409489 67.9251137,38.3183549 C67.8011355,38.2272207 67.670475,38.1547146 67.5332743,38.10055 C67.3957893,38.0465287 67.2601525,38.0195896 67.1262219,38.0195896 C66.9251838,38.0195896 66.7392165,38.0635805 66.5683199,38.1512756 C66.3975654,38.239114 66.2518341,38.3589067 66.1312682,38.510797 C66.01056,38.6628305 65.9167233,38.8367878 65.849758,39.0325256 C65.7826505,39.2284067 65.7492389,39.4310226 65.7492389,39.6402299 C65.7492389,39.86305 65.7860627,40.0691049 65.8598525,40.2581079 C65.9335001,40.4472543 66.0340192,40.612614 66.1612675,40.7544738 C66.2885158,40.8963335 66.4410716,41.007672 66.6186505,41.0886323 C66.7960872,41.169736 66.9920069,41.2102878 67.2065518,41.2102878 M66.8548063,42.3650835 C66.4929661,42.3650835 66.1579974,42.2940104 65.849758,42.1522939 C65.5415185,42.0104341 65.2769273,41.8146963 65.0558423,41.5647939 C64.8346151,41.3150348 64.6621546,41.022861 64.5381763,40.6885591 C64.4141981,40.3542573 64.352209,39.994736 64.352209,39.6098518 C64.352209,39.2249677 64.4107859,38.8670226 64.5282239,38.5361598 C64.6452355,38.205297 64.8078859,37.9148427 65.0156063,37.6650835 C65.2231845,37.4153244 65.471141,37.2193 65.7593335,37.0775835 C66.0473838,36.9357238 66.3623056,36.8647939 66.7040988,36.8647939 C67.092526,36.8647939 67.4427076,36.9593671 67.7543593,37.1483701 C68.0658688,37.3375165 68.3085648,37.5839799 68.4830158,37.8879037 L68.4830158,34.8694433 L69.8297151,34.8694433 L69.8297151,40.7037482 C69.8297151,40.8456079 69.8531743,40.9469159 69.9000927,41.007672 C69.9468688,41.068428 70.027341,41.1023884 70.1413668,41.1089799 L70.1413668,42.2637756 C69.9066328,42.3109189 69.7156893,42.3345622 69.568394,42.3345622 C69.327262,42.3345622 69.129494,42.2738061 68.9753743,42.1522939 C68.8212546,42.0307817 68.7342423,41.8721567 68.7141954,41.6761323 L68.6840539,41.3419738 C68.4895559,41.6797146 68.2266709,41.934489 67.8949722,42.1067268 C67.5634158,42.2789646 67.2166464,42.3650835 66.8548063,42.3650835" id="Fill-8" fill="#FF5C00"></path>
                    <path d="M74.9653996,39.1641686 C74.9317037,38.7658149 74.7859724,38.4467021 74.5282057,38.2069735 C74.2701547,37.9672448 73.956939,37.8474521 73.5884166,37.8474521 C73.4075676,37.8474521 73.2383771,37.8795497 73.0809873,37.9436015 C72.9234554,38.0077966 72.7844064,38.0972113 72.6638404,38.2119887 C72.5431322,38.3269095 72.4443193,38.4653302 72.3674016,38.6272509 C72.2901996,38.7893149 72.2449873,38.9684308 72.2316227,39.1641686 L74.9653996,39.1641686 Z M73.5985112,42.3650405 C73.176388,42.3650405 72.794501,42.2923912 72.4528499,42.1472357 C72.1110567,42.0020802 71.8195941,41.8046229 71.5784622,41.5547204 C71.337188,41.304818 71.1512207,41.014507 71.0205601,40.6836442 C70.8898996,40.3527814 70.8246404,40.0048668 70.8246404,39.6401869 C70.8246404,39.2621808 70.8881935,38.9058119 71.0155839,38.5716534 C71.1428322,38.2373515 71.3270935,37.9436015 71.5683676,37.6902601 C71.8094996,37.4370619 72.1025261,37.2363088 72.4477316,37.0877143 C72.7927948,36.9392631 73.1796581,36.8648942 73.6086057,36.8648942 C74.037269,36.8648942 74.4208622,36.9392631 74.7593853,37.0877143 C75.0976241,37.2363088 75.3858166,37.435629 75.6236785,37.6852448 C75.8613982,37.9351473 76.0423894,38.2256015 76.1663676,38.5564643 C76.2903459,38.8873271 76.352335,39.2318027 76.352335,39.5896046 C76.352335,39.677443 76.3506288,39.7616991 76.3473588,39.8428027 C76.3438044,39.9239064 76.3355581,39.9913973 76.3221935,40.0454186 L72.2518118,40.0454186 C72.2718588,40.2547692 72.3221894,40.4404765 72.4025193,40.6025405 C72.4829914,40.7646046 72.5867805,40.9030253 72.714171,41.0178027 C72.8412771,41.1327235 72.9854445,41.2204186 73.1462465,41.2811747 C73.3070486,41.3419308 73.4743907,41.3723088 73.6486996,41.3723088 C73.916703,41.3723088 74.1696356,41.3065375 74.4076397,41.1748515 C74.6453595,41.0431655 74.8078676,40.8693515 74.895022,40.6531229 L76.0507778,40.9772509 C75.856422,41.3824826 75.5464765,41.7152082 75.1212254,41.9749979 C74.6955479,42.2350741 74.1879765,42.3650405 73.5985112,42.3650405 Z" id="Fill-10" fill="#FF5C00"></path>
                    <path d="M82.7442374,41.9902155 C82.5633884,42.0711759 82.3421612,42.1522796 82.0808401,42.2333832 C81.8196612,42.3143436 81.5448333,42.3548954 81.256783,42.3548954 C81.0691095,42.3548954 80.8932367,42.3311088 80.7291646,42.2839655 C80.5648082,42.2368223 80.4209252,42.1608771 80.2969469,42.0559869 C80.1729687,41.9513832 80.0741558,41.8164015 80.0005082,41.6508985 C79.9267184,41.4855387 79.8898946,41.2846424 79.8898946,41.0482095 L79.8898946,37.9992277 L79.196498,37.9992277 L79.196498,36.956057 L79.8898946,36.956057 L79.8898946,35.2339655 L81.2365939,35.2339655 L81.2365939,36.956057 L82.3421612,36.956057 L82.3421612,37.9992277 L81.2365939,37.9992277 L81.2365939,40.5923954 C81.2365939,40.7815418 81.2852184,40.9149473 81.3823252,40.9924686 C81.479432,41.0702765 81.598434,41.1089655 81.7391891,41.1089655 C81.8799442,41.1089655 82.0171449,41.0854655 82.1513599,41.0380357 C82.2851483,40.9908924 82.3924918,40.9503405 82.4728218,40.9165235 L82.7442374,41.9902155 Z" id="Fill-12" fill="#FF5C00"></path>
                    <path d="M88.3421673,42.2637183 L86.9953259,42.2637183 L86.9953259,39.2856665 C86.9953259,38.8671085 86.918266,38.5581695 86.7642884,38.3588494 C86.6100265,38.1598159 86.3923537,38.0600841 86.1109857,38.0600841 C85.9902776,38.0600841 85.8630293,38.0871665 85.7290986,38.1410445 C85.5948837,38.1952091 85.4677776,38.2711543 85.3472116,38.3690232 C85.2265034,38.4668921 85.116032,38.583389 85.0155129,38.718514 C84.9149939,38.853639 84.8412041,39.0020902 84.7944279,39.1641543 L84.7944279,42.2637183 L83.4475864,42.2637183 L83.4475864,34.869386 L84.7944279,34.869386 L84.7944279,37.9384287 C84.9886415,37.5940963 85.2516687,37.3291482 85.5833673,37.1434409 C85.9149238,36.9577335 86.2818823,36.8648799 86.6838163,36.8648799 C87.0256095,36.8648799 87.3035653,36.9240598 87.5181102,37.0421329 C87.7323707,37.1603494 87.8999973,37.3172549 88.0205633,37.513136 C88.1411293,37.7090171 88.2248714,37.9318372 88.2717898,38.1815963 C88.318566,38.4314988 88.3421673,38.688136 88.3421673,38.9515079 L88.3421673,42.2637183 Z" id="Fill-14" fill="#FF5C00"></path>
                    <path d="M93.3270306,39.1641686 C93.2934769,38.7658149 93.1477456,38.4467021 92.8898367,38.2069735 C92.6317857,37.9672448 92.3185701,37.8474521 91.9500476,37.8474521 C91.7691986,37.8474521 91.6000082,37.8795497 91.4426184,37.9436015 C91.2850864,38.0077966 91.1461796,38.0972113 91.0254714,38.2119887 C90.9049054,38.3269095 90.8059503,38.4653302 90.7290327,38.6272509 C90.6519728,38.7893149 90.6067605,38.9684308 90.5932537,39.1641686 L93.3270306,39.1641686 Z M91.9601422,42.3650405 C91.538019,42.3650405 91.156132,42.2923912 90.814481,42.1472357 C90.4726878,42.0020802 90.1812252,41.8046229 89.9400932,41.5547204 C89.698819,41.304818 89.5128517,41.014507 89.3821912,40.6836442 C89.2515306,40.3527814 89.1862714,40.0048668 89.1862714,39.6401869 C89.1862714,39.2621808 89.2498245,38.9058119 89.377215,38.5716534 C89.5044633,38.2373515 89.6888667,37.9436015 89.9299986,37.6902601 C90.1712728,37.4370619 90.4642993,37.2363088 90.8093626,37.0877143 C91.1544259,36.9392631 91.5412891,36.8648942 91.9702367,36.8648942 C92.3989,36.8648942 92.7824932,36.9392631 93.1210163,37.0877143 C93.4592551,37.2363088 93.7474476,37.435629 93.9853095,37.6852448 C94.2230293,37.9351473 94.4040204,38.2256015 94.5279986,38.5564643 C94.6519769,38.8873271 94.713966,39.2318027 94.713966,39.5896046 C94.713966,39.677443 94.7122599,39.7616991 94.7089898,39.8428027 C94.7054354,39.9239064 94.6971891,39.9913973 94.6838245,40.0454186 L90.6134429,40.0454186 C90.6334898,40.2547692 90.6838204,40.4404765 90.7641503,40.6025405 C90.8446224,40.7646046 90.9484116,40.9030253 91.075802,41.0178027 C91.2030503,41.1327235 91.3470755,41.2204186 91.5078776,41.2811747 C91.6686796,41.3419308 91.8361639,41.3723088 92.0104728,41.3723088 C92.278334,41.3723088 92.5312667,41.3065375 92.7692707,41.1748515 C93.0069905,41.0431655 93.1694986,40.8693515 93.2566531,40.6531229 L94.4124088,40.9772509 C94.2180531,41.3824826 93.9082497,41.7152082 93.4828565,41.9749979 C93.0573211,42.2350741 92.5497497,42.3650405 91.9601422,42.3650405 Z" id="Fill-16" fill="#FF5C00"></path>
                    <path d="M98.2717147,42.2637183 L98.2717147,38.2727305 L97.5783181,38.2727305 L97.5783181,37.2395902 L98.2717147,37.2395902 L98.2717147,36.9154622 C98.2717147,36.2537366 98.4291045,35.7302884 98.7440263,35.3454043 C99.058948,34.9605201 99.4877535,34.768078 100.030585,34.768078 C100.459248,34.768078 100.891466,34.872825 101.326953,35.0820323 L101.05568,36.1051421 C100.955161,36.0511207 100.836159,36.0055537 100.698816,35.9682976 C100.561473,35.931328 100.435789,35.9127 100.321905,35.9127 C99.8528637,35.9127 99.618414,36.2302366 99.618414,36.8648799 L99.618414,37.2395902 L100.904973,37.2395902 L100.904973,38.2727305 L99.618414,38.2727305 L99.618414,42.2637183 L98.2717147,42.2637183 Z" id="Fill-18" fill="#FF5C00"></path>
                    <path d="M103.276781,42.3650262 C102.734092,42.3650262 102.321921,42.1894927 102.040553,41.8382823 C101.759185,41.4872152 101.61843,40.9672061 101.61843,40.2783982 L101.61843,36.956014 L102.965272,36.956014 L102.965272,39.9846482 C102.965272,40.801703 103.256592,41.2102305 103.839517,41.2102305 C104.100838,41.2102305 104.353771,41.1309896 104.598315,40.9722213 C104.84286,40.8135963 105.042191,40.5721482 105.196311,40.2480201 L105.196311,36.956014 L106.543153,36.956014 L106.543153,40.7038341 C106.543153,40.8455506 106.568176,40.9470018 106.618506,41.0076146 C106.668695,41.068514 106.750731,41.1023311 106.864757,41.1089226 L106.864757,42.2637183 C106.730542,42.290514 106.618506,42.3075659 106.528082,42.3143006 C106.437515,42.3210354 106.355479,42.3244744 106.281832,42.3244744 C106.040557,42.3244744 105.844638,42.2687335 105.693788,42.1573951 C105.543081,42.0459134 105.45422,41.892447 105.427491,41.6964226 L105.397349,41.2709866 C105.162757,41.6356665 104.861343,41.9092122 104.49282,42.0914805 C104.124298,42.2738921 103.718951,42.3650262 103.276781,42.3650262" id="Fill-20" fill="#FF5C00"></path>
                    <path d="M111.035558,41.9902155 C110.854709,42.0711759 110.633624,42.1522796 110.372161,42.2333832 C110.110982,42.3143436 109.836154,42.3548954 109.548104,42.3548954 C109.36043,42.3548954 109.184557,42.3311088 109.020485,42.2839655 C108.856271,42.2368223 108.712246,42.1608771 108.588267,42.0559869 C108.464289,41.9513832 108.365476,41.8164015 108.291829,41.6508985 C108.218039,41.4855387 108.181215,41.2846424 108.181215,41.0482095 L108.181215,37.9992277 L107.487819,37.9992277 L107.487819,36.956057 L108.181215,36.956057 L108.181215,35.2339655 L109.528057,35.2339655 L109.528057,36.956057 L110.633624,36.956057 L110.633624,37.9992277 L109.528057,37.9992277 L109.528057,40.5923954 C109.528057,40.7815418 109.576539,40.9149473 109.673788,40.9924686 C109.770753,41.0702765 109.889897,41.1089655 110.03051,41.1089655 C110.171265,41.1089655 110.308465,41.0854655 110.44268,41.0380357 C110.576611,40.9908924 110.683812,40.9503405 110.764284,40.9165235 L111.035558,41.9902155 Z" id="Fill-22" fill="#FF5C00"></path>
                    <path d="M113.347041,42.3650262 C112.804352,42.3650262 112.392323,42.1894927 112.110813,41.8382823 C111.829445,41.4872152 111.68869,40.9672061 111.68869,40.2783982 L111.68869,36.956014 L113.035532,36.956014 L113.035532,39.9846482 C113.035532,40.801703 113.326852,41.2102305 113.909777,41.2102305 C114.171098,41.2102305 114.424031,41.1309896 114.668575,40.9722213 C114.913119,40.8135963 115.112451,40.5721482 115.266571,40.2480201 L115.266571,36.956014 L116.613413,36.956014 L116.613413,40.7038341 C116.613413,40.8455506 116.638578,40.9470018 116.688766,41.0076146 C116.738955,41.068514 116.820991,41.1023311 116.935017,41.1089226 L116.935017,42.2637183 C116.800944,42.290514 116.688766,42.3075659 116.598342,42.3143006 C116.507917,42.3210354 116.425739,42.3244744 116.352091,42.3244744 C116.110817,42.3244744 115.914898,42.2687335 115.764048,42.1573951 C115.61334,42.0459134 115.52448,41.892447 115.497751,41.6964226 L115.467751,41.2709866 C115.233017,41.6356665 114.931602,41.9092122 114.56308,42.0914805 C114.194557,42.2738921 113.789211,42.3650262 113.347041,42.3650262" id="Fill-24" fill="#FF5C00"></path>
                    <path d="M121.085757,38.130971 C120.676998,38.1377058 120.311888,38.2170899 119.990284,38.3689802 C119.66868,38.5210137 119.4375,38.7488491 119.296745,39.0527729 L119.296745,42.2636753 L117.950046,42.2636753 L117.950046,36.955971 L119.186274,36.955971 L119.186274,38.0904192 C119.279968,37.9081509 119.390582,37.7445107 119.517972,37.5992119 C119.645078,37.4540564 119.782563,37.327529 119.930001,37.219343 C120.077296,37.1114436 120.22644,37.0286204 120.377289,36.9711601 C120.527997,36.913843 120.673728,36.8850412 120.814483,36.8850412 L120.980261,36.8850412 C121.017085,36.8850412 121.052203,36.8886235 121.085757,36.8952149 L121.085757,38.130971 Z" id="Fill-26" fill="#FF5C00"></path>
                    <path d="M125.38736,39.1641686 C125.353807,38.7658149 125.208075,38.4467021 124.950167,38.2069735 C124.692116,37.9672448 124.3789,37.8474521 124.01052,37.8474521 C123.829529,37.8474521 123.660338,37.8795497 123.502948,37.9436015 C123.345416,38.0077966 123.206509,38.0972113 123.085943,38.2119887 C122.965235,38.3269095 122.86628,38.4653302 122.789363,38.6272509 C122.712303,38.7893149 122.66709,38.9684308 122.653726,39.1641686 L125.38736,39.1641686 Z M124.020472,42.3650405 C123.598349,42.3650405 123.216462,42.2923912 122.874811,42.1472357 C122.533018,42.0020802 122.241697,41.8046229 122.000423,41.5547204 C121.759149,41.304818 121.573324,41.014507 121.442663,40.6836442 C121.31186,40.3527814 121.246601,40.0048668 121.246601,39.6401869 C121.246601,39.2621808 121.310297,38.9058119 121.437545,38.5716534 C121.564793,38.2373515 121.749197,37.9436015 121.990329,37.6902601 C122.231603,37.4370619 122.524629,37.2363088 122.869692,37.0877143 C123.214756,36.9392631 123.601761,36.8648942 124.030567,36.8648942 C124.459372,36.8648942 124.842965,36.9392631 125.181346,37.0877143 C125.519585,37.2363088 125.807777,37.435629 126.045639,37.6852448 C126.283501,37.9351473 126.46435,38.2256015 126.588471,38.5564643 C126.712307,38.8873271 126.774296,39.2318027 126.774296,39.5896046 C126.774296,39.677443 126.77259,39.7616991 126.76932,39.8428027 C126.765907,39.9239064 126.757519,39.9913973 126.744154,40.0454186 L122.673773,40.0454186 C122.693962,40.2547692 122.74415,40.4404765 122.824622,40.6025405 C122.904952,40.7646046 123.008741,40.9030253 123.136132,41.0178027 C123.26338,41.1327235 123.407405,41.2204186 123.56835,41.2811747 C123.729009,41.3419308 123.896494,41.3723088 124.070803,41.3723088 C124.338664,41.3723088 124.591597,41.3065375 124.829601,41.1748515 C125.06732,41.0431655 125.229971,40.8693515 125.316983,40.6531229 L126.472881,40.9772509 C126.278383,41.3824826 125.96858,41.7152082 125.543186,41.9749979 C125.117651,42.2350741 124.61008,42.3650405 124.020472,42.3650405 Z" id="Fill-28" fill="#FF5C00"></path>
                    <mask id="mask-2" fill="white">
                        <use xlink:href="#path-1"></use>
                    </mask>
                    <g id="Clip-31"></g>
                    <polygon id="Fill-30" fill="#FF5C00" mask="url(#mask-2)" points="127.568339 42.263747 128.673907 42.263747 128.673907 40.8051707 127.568339 40.8051707"></polygon>
                    <polygon id="Fill-32" fill="#FF5C00" mask="url(#mask-2)" points="137.457679 36.2975412 135.176167 36.2975412 135.176167 42.2636753 133.799468 42.2636753 133.799468 36.2975412 131.517956 36.2975412 131.517956 35.0719588 137.457679 35.0719588"></polygon>
                    <path d="M138.120949,39.6200113 C138.120949,39.8564442 138.156066,40.0708101 138.226444,40.2631088 C138.296821,40.4556942 138.393928,40.6227735 138.517906,40.7646332 C138.641742,40.9063497 138.787474,41.0162552 138.9551,41.0937765 C139.122585,41.1714412 139.303434,41.2102735 139.497931,41.2102735 C139.692145,41.2102735 139.872994,41.1714412 140.040621,41.0937765 C140.207963,41.0162552 140.353694,40.9063497 140.477672,40.7646332 C140.601651,40.6227735 140.6989,40.454118 140.769135,40.2580936 C140.839512,40.0623558 140.874772,39.8462704 140.874772,39.6098375 C140.874772,39.3804259 140.839512,39.1676363 140.769135,38.9717552 C140.6989,38.7758741 140.601651,38.6070753 140.477672,38.4652155 C140.353694,38.3234991 140.207963,38.2137369 140.040621,38.1360723 C139.872994,38.0585509 139.692145,38.0195753 139.497931,38.0195753 C139.303434,38.0195753 139.122585,38.0601271 138.9551,38.1410875 C138.787474,38.2221912 138.641742,38.3335296 138.517906,38.4753893 C138.393928,38.6171058 138.296821,38.7860479 138.226444,38.9817857 C138.156066,39.1778101 138.120949,39.3904564 138.120949,39.6200113 M139.497931,42.3650692 C139.068984,42.3650692 138.683685,42.290557 138.342034,42.1422491 C138.00024,41.9936546 137.710342,41.7927582 137.472622,41.5395601 C137.23476,41.2862186 137.052063,40.9941881 136.924957,40.6633253 C136.797566,40.3324625 136.734013,39.9845479 136.734013,39.6200113 C136.734013,39.2487399 136.797566,38.8975296 136.924957,38.5665235 C137.052063,38.235804 137.23476,37.9436302 137.472622,37.6902887 C137.710342,37.4370905 138.00024,37.2363375 138.342034,37.087743 C138.683685,36.9392918 139.068984,36.8647796 139.497931,36.8647796 C139.926453,36.8647796 140.310188,36.9392918 140.648569,37.087743 C140.986808,37.2363375 141.275142,37.4370905 141.512862,37.6902887 C141.750582,37.9436302 141.933279,38.235804 142.06067,38.5665235 C142.187776,38.8975296 142.251613,39.2487399 142.251613,39.6200113 C142.251613,39.9845479 142.187776,40.3324625 142.06067,40.6633253 C141.933279,40.9941881 141.75243,41.2862186 141.51798,41.5395601 C141.283389,41.7927582 140.995338,41.9936546 140.653545,42.1422491 C140.311894,42.290557 139.926453,42.3650692 139.497931,42.3650692" id="Fill-33" fill="#FF5C00" mask="url(#mask-2)"></path>
                    <path d="M145.668678,41.2102878 C145.815973,41.2102878 145.956586,41.1866445 146.090801,41.1393579 C146.224732,41.0922146 146.348568,41.0280195 146.462593,40.9469159 C146.576477,40.8658122 146.676996,40.7713823 146.764151,40.6633396 C146.851021,40.555297 146.918128,40.4403762 146.965047,40.318864 L146.965047,39.0527299 C146.844623,38.7422146 146.655101,38.4923122 146.397334,38.3031659 C146.139283,38.1141628 145.869574,38.0195896 145.588348,38.0195896 C145.380485,38.0195896 145.192812,38.0651567 145.02547,38.1562909 C144.857843,38.247425 144.713818,38.3689372 144.593252,38.5209707 C144.472686,38.672861 144.380413,38.8468183 144.31686,39.0426994 C144.253023,39.2385805 144.221317,39.441053 144.221317,39.6504037 C144.221317,39.8666323 144.258141,40.0691049 144.331931,40.2581079 C144.405579,40.4472543 144.507804,40.612614 144.638464,40.7544738 C144.769125,40.8963335 144.921396,41.007672 145.095847,41.0886323 C145.269872,41.169736 145.460815,41.2102878 145.668678,41.2102878 M145.216271,42.2940104 C144.861113,42.2940104 144.539651,42.2232238 144.251459,42.081364 C143.963408,41.9395043 143.713746,41.745486 143.502755,41.4990226 C143.291623,41.2525591 143.129257,40.9671201 143.015373,40.6429921 C142.901347,40.318864 142.844476,39.9745317 142.844476,39.6098518 C142.844476,39.2249677 142.904902,38.8670226 143.025325,38.5361598 C143.146034,38.205297 143.313376,37.9148427 143.527779,37.6650835 C143.742181,37.4153244 144.000374,37.2193 144.301789,37.0775835 C144.603347,36.9357238 144.934903,36.8647939 145.296743,36.8647939 C145.705359,36.8647939 146.063787,36.9576476 146.372169,37.1433549 C146.680266,37.3292055 146.934905,37.5772451 147.135943,37.8879037 L147.135943,36.9560713 L148.311888,36.9560713 L148.311888,42.0104341 C148.311888,42.402053 148.237956,42.7532634 148.090803,43.063922 C147.943366,43.3744372 147.740479,43.6378091 147.482713,43.8540378 C147.224661,44.0701232 146.916422,44.2354829 146.558136,44.3504037 C146.199566,44.4650378 145.809291,44.5224982 145.38731,44.5224982 C144.810925,44.5224982 144.326813,44.4263488 143.934973,44.2339067 C143.542991,44.0413213 143.206317,43.7694951 142.924806,43.418428 L143.658439,42.6992421 C143.859477,42.9490012 144.11241,43.1448823 144.417237,43.2867421 C144.722206,43.4286018 145.045517,43.4995317 145.38731,43.4995317 C145.594746,43.4995317 145.79422,43.4705866 145.985306,43.4134128 C146.176107,43.3559524 146.345298,43.2665378 146.492735,43.1448823 C146.64003,43.0233701 146.75562,42.8678976 146.839504,42.6790378 C146.923104,42.4898915 146.965047,42.2670713 146.965047,42.0104341 L146.965047,41.3419738 C146.79088,41.6458976 146.546336,41.8804677 146.231414,42.0459707 C145.91635,42.2114738 145.578111,42.2940104 145.216271,42.2940104" id="Fill-34" fill="#FF5C00" mask="url(#mask-2)"></path>
                    <path d="M153.336916,39.1641686 C153.303363,38.7658149 153.157489,38.4467021 152.899722,38.2069735 C152.641671,37.9672448 152.328314,37.8474521 151.959933,37.8474521 C151.779084,37.8474521 151.609894,37.8795497 151.452362,37.9436015 C151.294972,38.0077966 151.155923,38.0972113 151.035357,38.2119887 C150.914791,38.3269095 150.815836,38.4653302 150.738918,38.6272509 C150.661858,38.7893149 150.616504,38.9684308 150.603139,39.1641686 L153.336916,39.1641686 Z M151.970028,42.3650405 C151.547905,42.3650405 151.165875,42.2923912 150.824224,42.1472357 C150.482573,42.0020802 150.191111,41.8046229 149.949979,41.5547204 C149.708563,41.304818 149.522737,41.014507 149.392077,40.6836442 C149.261416,40.3527814 149.196157,40.0048668 149.196157,39.6401869 C149.196157,39.2621808 149.25971,38.9058119 149.387101,38.5716534 C149.514207,38.2373515 149.69861,37.9436015 149.939742,37.6902601 C150.181158,37.4370619 150.474043,37.2363088 150.819248,37.0877143 C151.164311,36.9392631 151.551175,36.8648942 151.980122,36.8648942 C152.408786,36.8648942 152.792379,36.9392631 153.130902,37.0877143 C153.469141,37.2363088 153.757333,37.435629 153.995195,37.6852448 C154.232915,37.9351473 154.413764,38.2256015 154.537884,38.5564643 C154.66172,38.8873271 154.723852,39.2318027 154.723852,39.5896046 C154.723852,39.677443 154.722003,39.7616991 154.718875,39.8428027 C154.715321,39.9239064 154.707075,39.9913973 154.69371,40.0454186 L150.623329,40.0454186 C150.643375,40.2547692 150.693564,40.4404765 150.774036,40.6025405 C150.854508,40.7646046 150.958297,40.9030253 151.085546,41.0178027 C151.212936,41.1327235 151.356961,41.2204186 151.517763,41.2811747 C151.678565,41.3419308 151.84605,41.3723088 152.020216,41.3723088 C152.28822,41.3723088 152.541152,41.3065375 152.779014,41.1748515 C153.016876,41.0431655 153.179384,40.8693515 153.266539,40.6531229 L154.422294,40.9772509 C154.227939,41.3824826 153.918135,41.7152082 153.492742,41.9749979 C153.067207,42.2350741 152.559493,42.3650405 151.970028,42.3650405 Z" id="Fill-35" fill="#FF5C00" mask="url(#mask-2)"></path>
                    <path d="M158.663559,41.9902155 C158.48271,42.0711759 158.261624,42.1522796 158.000303,42.2333832 C157.738982,42.3143436 157.464154,42.3548954 157.176104,42.3548954 C156.988573,42.3548954 156.812558,42.3311088 156.648486,42.2839655 C156.484271,42.2368223 156.340246,42.1608771 156.216268,42.0559869 C156.09229,41.9513832 155.993619,41.8164015 155.919829,41.6508985 C155.846039,41.4855387 155.809358,41.2846424 155.809358,41.0482095 L155.809358,37.9992277 L155.115819,37.9992277 L155.115819,36.956057 L155.809358,36.956057 L155.809358,35.2339655 L157.156057,35.2339655 L157.156057,36.956057 L158.261624,36.956057 L158.261624,37.9992277 L157.156057,37.9992277 L157.156057,40.5923954 C157.156057,40.7815418 157.204539,40.9149473 157.301788,40.9924686 C157.398753,41.0702765 157.517755,41.1089655 157.658652,41.1089655 C157.799265,41.1089655 157.936608,41.0854655 158.070681,41.0380357 C158.204469,40.9908924 158.311813,40.9503405 158.392285,40.9165235 L158.663559,41.9902155 Z" id="Fill-36" fill="#FF5C00" mask="url(#mask-2)"></path>
                    <path d="M164.261488,42.2637183 L162.914789,42.2637183 L162.914789,39.2856665 C162.914789,38.8671085 162.837587,38.5581695 162.68361,38.3588494 C162.529348,38.1598159 162.311675,38.0600841 162.030449,38.0600841 C161.909741,38.0600841 161.78235,38.0871665 161.64842,38.1410445 C161.514347,38.1952091 161.387099,38.2711543 161.266533,38.3690232 C161.145967,38.4668921 161.035353,38.583389 160.934976,38.718514 C160.834457,38.853639 160.760525,39.0020902 160.713749,39.1641543 L160.713749,42.2637183 L159.366907,42.2637183 L159.366907,34.869386 L160.713749,34.869386 L160.713749,37.9384287 C160.907963,37.5940963 161.171132,37.3291482 161.502688,37.1434409 C161.834387,36.9577335 162.201203,36.8648799 162.60328,36.8648799 C162.944931,36.8648799 163.222886,36.9240598 163.437431,37.0421329 C163.651834,37.1603494 163.819318,37.3172549 163.939884,37.513136 C164.060593,37.7090171 164.144193,37.9318372 164.191253,38.1815963 C164.238029,38.4314988 164.261488,38.688136 164.261488,38.9515079 L164.261488,42.2637183 Z" id="Fill-37" fill="#FF5C00" mask="url(#mask-2)"></path>
                    <path d="M169.246437,39.1641686 C169.212883,38.7658149 169.06701,38.4467021 168.809243,38.2069735 C168.551192,37.9672448 168.237834,37.8474521 167.869454,37.8474521 C167.688605,37.8474521 167.519415,37.8795497 167.361883,37.9436015 C167.204493,38.0077966 167.065444,38.0972113 166.94502,38.2119887 C166.824312,38.3269095 166.725357,38.4653302 166.648439,38.6272509 C166.571379,38.7893149 166.526025,38.9684308 166.51266,39.1641686 L169.246437,39.1641686 Z M167.879549,42.3650405 C167.457425,42.3650405 167.075396,42.2923912 166.733745,42.1472357 C166.392094,42.0020802 166.100632,41.8046229 165.8595,41.5547204 C165.618225,41.304818 165.432258,41.014507 165.301598,40.6836442 C165.170937,40.3527814 165.105678,40.0048668 165.105678,39.6401869 C165.105678,39.2621808 165.169231,38.9058119 165.296621,38.5716534 C165.423727,38.2373515 165.608131,37.9436015 165.849263,37.6902601 C166.090679,37.4370619 166.383564,37.2363088 166.728769,37.0877143 C167.073832,36.9392631 167.460696,36.8648942 167.889643,36.8648942 C168.318306,36.8648942 168.702042,36.9392631 169.040423,37.0877143 C169.378661,37.2363088 169.666854,37.435629 169.904716,37.6852448 C170.142436,37.9351473 170.323285,38.2256015 170.447405,38.5564643 C170.571241,38.8873271 170.633372,39.2318027 170.633372,39.5896046 C170.633372,39.677443 170.631666,39.7616991 170.628396,39.8428027 C170.624842,39.9239064 170.616596,39.9913973 170.603231,40.0454186 L166.532849,40.0454186 C166.552896,40.2547692 166.603085,40.4404765 166.683557,40.6025405 C166.764029,40.7646046 166.867818,40.9030253 166.995066,41.0178027 C167.122457,41.1327235 167.266482,41.2204186 167.427284,41.2811747 C167.588086,41.3419308 167.75557,41.3723088 167.929737,41.3723088 C168.19774,41.3723088 168.450673,41.3065375 168.688535,41.1748515 C168.926397,41.0431655 169.088905,40.8693515 169.176059,40.6531229 L170.331957,40.9772509 C170.137459,41.3824826 169.827656,41.7152082 169.402263,41.9749979 C168.976727,42.2350741 168.469014,42.3650405 167.879549,42.3650405 Z" id="Fill-38" fill="#FF5C00" mask="url(#mask-2)"></path>
                    <path d="M174.593197,38.130971 C174.184439,38.1377058 173.819329,38.2170899 173.497724,38.3689802 C173.17612,38.5210137 172.944941,38.7488491 172.804186,39.0527729 L172.804186,42.2636753 L171.457486,42.2636753 L171.457486,36.955971 L172.693714,36.955971 L172.693714,38.0904192 C172.787409,37.9081509 172.898022,37.7445107 173.025413,37.5992119 C173.152519,37.4540564 173.290004,37.327529 173.437441,37.219343 C173.584737,37.1114436 173.73388,37.0286204 173.88473,36.9711601 C174.035437,36.913843 174.181169,36.8850412 174.321924,36.8850412 L174.487702,36.8850412 C174.524526,36.8850412 174.559644,36.8886235 174.593197,36.8952149 L174.593197,38.130971 Z" id="Fill-39" fill="#FF5C00" mask="url(#mask-2)"></path>
                    <path d="M77.6172541,26.9140485 C80.6026841,26.9114692 83.588114,26.9088899 86.5735439,26.9063107 C86.5668616,26.9140485 86.5577623,23.6137314 86.5577623,23.6127284 L79.4054127,23.6127284 C78.809265,24.7132162 78.2132596,25.8135607 77.6172541,26.9140485" id="Fill-40" fill="#0E1E30" mask="url(#mask-2)"></path>
                    <path d="M76.4477641,22.2315588 L76.4477641,20.1999552 L79.2630083,20.1999552 L81.0668063,16.8189643 L76.4477641,16.8189643 L76.4477641,14.7664399 C76.4477641,14.0387997 77.0319688,13.4498668 77.7569287,13.4498668 L82.8831158,13.4498668 L84.6856341,10.1557113 L77.7569287,10.1557113 C75.2213464,10.1557113 73.1626253,12.2168332 73.1626253,14.7664399 L73.1626253,22.2315588 C73.1626253,24.073443 74.2485722,25.6510954 75.8028498,26.3870466 L77.3929559,23.4870893 C76.8472811,23.3261716 76.4477641,22.8257936 76.4477641,22.2315588" id="Fill-41" fill="#0E1E30" mask="url(#mask-2)"></path>
                    <path d="M86.6270167,10.3694753 L84.9378133,13.4499814 L85.298516,13.4499814 C86.0263194,13.4499814 86.616069,14.038771 86.616069,14.7665546 L86.616069,16.8189357 L83.0764337,16.8189357 L81.2567119,20.1999265 L89.9012078,20.1999265 L89.9012078,19.427579 L89.9012078,17.3250454 L89.9012078,14.7665546 C89.9012078,12.6832223 88.5176847,10.939207 86.6270167,10.3694753" id="Fill-42" fill="#0E1E30" mask="url(#mask-2)"></path>
                    <path d="M199.993564,9.10083354 C199.993564,8.27174207 199.286377,7.56502256 198.460756,7.56502256 L197.320781,7.56502256 L197.320781,4.33434573 L198.460756,4.33434573 C201.092307,4.33434573 203.215292,6.46310183 203.215292,9.10083354 L203.215292,15.5174799 C203.689879,15.7927451 204.474126,16.3075957 205.062028,16.663678 L205.062028,20.4438823 L203.215292,21.4261537 L203.215292,27.8843549 C203.215292,30.5610622 201.092307,32.689675 198.460756,32.689675 L197.320781,32.689675 L197.320781,29.4173 L198.460756,29.4173 C199.286377,29.4173 199.993564,28.7107238 199.993564,27.8843549 L199.993564,21.147736 L203.29548,18.5085713 L199.993564,15.7927451 L199.993564,9.10083354 Z" id="Fill-43" fill="#FF5C00" mask="url(#mask-2)"></path>
                    <path d="M9.06883701,27.9231872 C9.06883701,28.7522787 9.77559823,29.4617207 10.6010771,29.4617207 L11.7414778,29.4617207 L11.7414778,32.6922543 L10.6010771,32.6922543 C7.97293769,32.6922543 5.84682476,30.5666506 5.84682476,27.9231872 L5.84682476,21.5066841 C5.37479755,21.2338549 4.59069211,20.7138457 4.00264857,20.3630652 L4.00264857,16.5858701 L5.84682476,15.6008762 L5.84682476,9.14296159 C5.84682476,6.46596768 7.97293769,4.33735488 10.6010771,4.33735488 L11.7414778,4.33735488 L11.7414778,7.60944329 L10.6010771,7.60944329 C9.77559823,7.60944329 9.06883701,8.3161628 9.06883701,9.14296159 L9.06883701,15.876428 L5.7697649,18.5170256 L9.06883701,21.2338549 L9.06883701,27.9231872 Z" id="Fill-44" fill="#FF5C00" mask="url(#mask-2)"></path>
                    <path d="M46.195398,22.2360439 C46.195398,22.3055409 46.1400912,22.3585591 46.0739789,22.3585591 L38.6195034,22.3585591 C38.5506898,22.3585591 38.4952408,22.3055409 38.4952408,22.2360439 L38.4952408,14.7610378 C38.4952408,14.696986 38.5506898,14.6385226 38.6195034,14.6385226 L46.0739789,14.6385226 C46.1400912,14.6385226 46.195398,14.696986 46.195398,14.7610378 L46.195398,22.2360439 Z M46.0739789,10.144864 L38.6195034,10.144864 C36.068566,10.144864 34.0061483,12.2121476 34.0061483,14.7610378 L34.0061483,22.2360439 C34.0061483,24.7879433 36.068566,26.8580927 38.6195034,26.8580927 L46.0739789,26.8580927 C48.6165279,26.8580927 50.6817891,24.7879433 50.6817891,22.2360439 L50.6817891,14.7610378 C50.6817891,12.2121476 48.6165279,10.144864 46.0739789,10.144864 Z" id="Fill-45" fill="#0E1E30" mask="url(#mask-2)"></path>
                    <path d="M26.7107118,22.2496854 C26.7107118,22.3163165 26.6609499,22.369478 26.5946955,22.369478 L19.1376608,22.369478 C19.0714064,22.369478 19.0189431,22.3163165 19.0189431,22.2496854 L19.0189431,14.7718134 C19.0189431,14.7076183 19.0714064,14.6548866 19.1376608,14.6548866 L26.5946955,14.6548866 C26.6609499,14.6548866 26.7107118,14.7076183 26.7107118,14.7718134 L26.7107118,15.9896579 L31.2023635,15.9896579 L31.2023635,14.7718134 C31.2023635,12.2229232 29.140088,10.1556396 26.5946955,10.1556396 L19.1376608,10.1556396 C16.5948275,10.1556396 14.5271493,12.2229232 14.5271493,14.7718134 L14.5271493,22.2496854 C14.5271493,24.8011549 16.5948275,26.8688683 19.1376608,26.8688683 L26.5946955,26.8688683 C29.140088,26.8688683 31.2023635,24.8011549 31.2023635,22.2496854 L31.2023635,21.073539 L26.7107118,21.073539 L26.7107118,22.2496854 Z" id="Fill-46" fill="#0E1E30" mask="url(#mask-2)"></path>
                    <path d="M65.7872144,22.2496854 C65.7872144,22.3163165 65.7375946,22.369478 65.668781,22.369478 L58.2087606,22.369478 C58.1453497,22.369478 58.1009905,22.3220482 58.0927443,22.2607189 L58.0927443,14.7633591 C58.1009905,14.7021732 58.1453497,14.6548866 58.2087606,14.6548866 L65.668781,14.6548866 C65.7375946,14.6548866 65.7872144,14.7076183 65.7872144,14.7718134 L65.7872144,15.3475634 L65.7843708,15.3475634 L65.7843708,21.8322738 L65.7872144,21.8322738 L65.7872144,22.2496854 Z M70.2791504,15.3475634 L70.2791504,14.7718134 C70.2791504,12.2229232 68.2141735,10.1556396 65.668781,10.1556396 L58.2087606,10.1556396 C58.167245,10.1556396 58.1342599,10.1607982 58.0927443,10.1607982 L58.0927443,10.1556396 L53.6063531,10.1556396 L53.6063531,14.6881305 C53.6035096,14.715786 53.6010926,14.7441579 53.6010926,14.7718134 L53.6010926,22.2496854 C53.6010926,22.28035 53.6035096,22.3081488 53.6063531,22.3358043 L53.6063531,26.8688683 L58.0927443,26.8688683 L58.0927443,26.8631366 C58.1342599,26.8631366 58.167245,26.8688683 58.2087606,26.8688683 L65.668781,26.8688683 C68.2141735,26.8688683 70.2791504,24.8011549 70.2791504,22.2496854 L70.2791504,21.8322738 L70.2791504,15.3475634 Z" id="Fill-47" fill="#0E1E30" mask="url(#mask-2)"></path>
                    <path d="M189.455685,10.1607695 L187.404073,10.1607695 L184.122773,10.1607695 L182.071445,10.1607695 C179.523351,10.1607695 177.460791,12.2256171 177.460791,14.7770866 L177.460791,26.8996476 L180.751759,26.8996476 L180.751759,14.7770866 C180.751759,14.0481567 181.342788,13.4608 182.071445,13.4608 L184.122773,13.4608 L187.404073,13.4608 L189.455685,13.4608 C190.181924,13.4608 190.772527,14.0481567 190.772527,14.7770866 L190.772527,26.8903335 L194.066196,26.8903335 L194.066196,14.7770866 C194.066196,12.2256171 192.001077,10.1607695 189.455685,10.1607695" id="Fill-48" fill="#0E1E30" mask="url(#mask-2)"></path>
                    <path d="M132.272119,22.1957357 L132.272119,22.2596442 C132.272119,22.9859948 131.683791,23.5842418 130.957552,23.5842418 L123.495114,23.5842418 C122.772003,23.5842418 122.180973,22.9859948 122.180973,22.2596442 L122.180973,14.7819155 C122.180973,14.0584308 122.772003,13.465629 123.495114,13.465629 L130.957552,13.465629 C131.683791,13.465629 132.272119,14.0584308 132.272119,14.7819155 L132.272119,19.4565527 L132.272119,22.1957357 Z M130.957552,10.1524155 L123.495114,10.1524155 C120.949722,10.1524155 118.887162,12.2490741 118.887162,14.7979643 L118.887162,22.275693 C118.887162,24.8244399 120.949722,26.8948759 123.495114,26.8948759 L130.957552,26.8948759 C133.500527,26.8948759 135.565362,24.8244399 135.565362,22.275693 L135.565362,22.2116412 L135.565362,19.4724582 L135.565362,14.7979643 C135.565362,12.2490741 133.500527,10.1524155 130.957552,10.1524155 Z" id="Fill-49" fill="#0E1E30" mask="url(#mask-2)"></path>
                    <path d="M171.253292,22.1957357 L171.253292,22.2596442 C171.253292,22.9859948 170.664822,23.5842418 169.936165,23.5842418 L162.479273,23.5842418 C161.756019,23.5842418 161.164848,22.9859948 161.164848,22.2437387 L161.164848,14.7660101 C161.164848,14.0584308 161.756019,13.465629 162.479273,13.465629 L169.936165,13.465629 C170.664822,13.465629 171.253292,14.0584308 171.253292,14.7819155 L171.253292,19.4565527 L171.253292,22.1957357 Z M169.936165,10.1524155 L162.479273,10.1524155 C159.936582,10.1524155 157.871321,12.2490741 157.871321,14.7979643 L157.871321,22.275693 C157.871321,24.8244399 159.936582,26.8948759 162.479273,26.8948759 L169.936165,26.8948759 C172.484686,26.8948759 174.549521,24.8244399 174.549521,22.275693 L174.549521,22.2116412 L174.549521,19.4724582 L174.549521,14.7979643 C174.549521,12.2490741 172.484686,10.1524155 169.936165,10.1524155 Z" id="Fill-50" fill="#0E1E30" mask="url(#mask-2)"></path>
                    <path d="M143.127821,23.6127857 C142.401297,23.6127857 141.800031,22.931429 141.800031,22.2024991 L141.800031,16.8348985 L147.416017,16.8348985 L147.416017,13.4450235 L141.800031,13.4450235 L141.800031,10.1434168 C141.800031,10.1373985 141.805434,10.1480021 141.805434,10.1396912 L138.509063,10.1396912 L138.509063,10.1434168 L138.509063,22.2503588 C138.509063,24.8019716 140.571054,26.9172582 143.114172,26.9172582 L148.824279,26.9172582 L148.824279,23.6127857 L143.127821,23.6127857 Z" id="Fill-51" fill="#0E1E30" mask="url(#mask-2)"></path>
                    <polygon id="Fill-52" fill="#0E1E30" mask="url(#mask-2)" points="151.646419 26.9047774 155.017148 26.9047774 155.017148 10.1527165 151.646419 10.1527165"></polygon>
                    <path d="M111.448823,10.1527165 L111.116698,10.1527165 L107.657109,10.1527165 L107.327685,10.1527165 C106.217568,10.1527165 105.199866,10.5616738 104.413343,11.2328567 C103.621418,10.5616738 102.607981,10.1527165 101.495021,10.1527165 L101.162753,10.1527165 L97.6932112,10.1527165 L97.3613704,10.1527165 C94.8496738,10.1527165 92.8168289,12.2558232 92.8168289,14.808439 L92.8168289,26.8828537 L96.0659969,26.8828537 L96.0659969,14.808439 C96.0659969,14.078936 96.6429507,13.4699421 97.3613704,13.4699421 L97.6932112,13.4699421 L101.162753,13.4699421 L101.495021,13.4699421 C102.196948,13.4699421 102.763238,14.0538598 102.790536,14.7611524 C102.790536,14.7777744 102.787551,14.7915305 102.787551,14.808439 L102.787551,23.6240915 L102.793238,23.6240915 L106.029894,23.6240915 L106.040842,23.6240915 L106.040842,14.808439 C106.040842,14.7915305 106.032453,14.7777744 106.032453,14.7611524 C106.059894,14.0538598 106.623056,13.4699421 107.327685,13.4699421 L107.657109,13.4699421 L111.116698,13.4699421 L111.448823,13.4699421 C112.161698,13.4699421 112.74377,14.078936 112.74377,14.808439 L112.74377,26.8828537 L115.987678,26.8828537 L115.987678,14.808439 C115.987678,12.2558232 113.954833,10.1527165 111.448823,10.1527165" id="Fill-53" fill="#0E1E30" mask="url(#mask-2)"></path>
                </g>
            </g>
        </g>
    </g>
</svg>