<?xml version="1.0"?>
 <svg version="1.1" baseProfile="full" xmlns="http://www.w3.org/2000/svg" x="0" y="0" width="128" height="128" viewBox="0 0 128 128" preserveAspectRatio="xMidYMid meet"> <g fill="#fff"> <path d="M3,11h70c0,0,52.34-2.79,52.34,53.68S64,116.27,64,116.27l-61,0.11V11z"></path> </g> <g fill="#000"> <path d="M71.05,118H0V8.04h71.05c16.49,0,30.57,4.94,40.72,14.29C122.39,32.11,128,46.18,128,63.02s-5.61,30.91-16.23,40.69 C101.62,113.06,87.54,118,71.05,118z M4.82,113.18h66.23c15.26,0,28.21-4.5,37.45-13.02c9.6-8.84,14.68-21.69,14.68-37.14 s-5.07-28.3-14.68-37.14c-9.24-8.52-22.2-13.02-37.45-13.02H4.82V113.18z"></path> <path d="M34.76,53.06c0,6.42-5.2,11.62-11.62,11.62c-6.42,0-11.62-5.21-11.62-11.62c0-6.42,5.2-11.62,11.62-11.62 C29.55,41.44,34.76,46.64,34.76,53.06z"></path> <rect x="12.68" y="70.29" width="20.53" height="34.09"></rect> </g> <g fill="#00b0f0"> <path d="M114.14,63.13c0-32.14-22.98-41.18-44.96-41.46v-0.01H68.1H42.44v0.6v16.58v3.5h3.3 c3.16,0,5.66,1.04,7.5,3.13c1.83,2.08,2.75,4.77,2.76,8.07c0,3.3-0.92,5.99-2.76,8.07c-1.84,2.08-4.34,3.13-7.5,3.13h-3.3v28.23 v9.61v1.81h25.66v-0.07l1.01,0.07C91.12,104.17,114.14,97.14,114.14,63.13z M61.13,42.38h6.78v22.31h-6.78V42.38z M95,64.68h-6.15v0 l-9.27-13.01v13.01h-6.15V42.38h6.15l9.27,13.01V42.38H95V64.68z"></path> <path d="M48.84,49.12c-0.97-1.16-2.09-1.58-3.9-1.58h-2.49v11.97h2.49c1.81,0,2.94-0.41,3.9-1.58 c0.97-1.16,1.34-2.37,1.34-4.4c0,0,0-0.01,0-0.01s0-0.01,0-0.01C50.18,51.5,49.8,50.29,48.84,49.12z"></path> </g> </svg> 